HIERARCHY
ROOT pelvis
{
	OFFSET 0.003123 -0.351407 0.012037
	CHANNELS 6 Xposition Yposition Zposition Zrotation Yrotation Xrotation 
	JOINT left_hip
	{
		OFFSET 0.058189 -0.092763 -0.026001
		CHANNELS 3 Zrotation Yrotation Xrotation
		JOINT left_knee
		{
			OFFSET 0.054695 -0.378753 -0.009396
			CHANNELS 3 Zrotation Yrotation Xrotation
			JOINT left_ankle
			{
				OFFSET -0.043453 -0.403059 -0.031876
				CHANNELS 3 Zrotation Yrotation Xrotation
				JOINT left_foot
				{
					OFFSET 0.047257 -0.057997 0.118216
					CHANNELS 3 Zrotation Yrotation Xrotation
					End Site
					{
						OFFSET 0.000000 0.000000 0.000000
					}
				}
			}
		}
	}
	JOINT right_hip
	{
		OFFSET -0.063267 -0.103908 -0.021250
		CHANNELS 3 Zrotation Yrotation Xrotation
		JOINT right_knee
		{
			OFFSET -0.044210 -0.362380 -0.016824
			CHANNELS 3 Zrotation Yrotation Xrotation
			JOINT right_ankle
			{
				OFFSET 0.015417 -0.410728 -0.020192
				CHANNELS 3 Zrotation Yrotation Xrotation
				JOINT right_foot
				{
					OFFSET -0.038812 -0.058328 0.119049
					CHANNELS 3 Zrotation Yrotation Xrotation
					End Site
					{
						OFFSET 0.000000 0.000000 0.000000
					}
				}
			}
		}
	}
	JOINT spine_1
	{
		OFFSET -0.002763 0.109891 -0.027618
		CHANNELS 3 Zrotation Yrotation Xrotation
		JOINT spine_2
		{
			OFFSET 0.009448 0.131853 -0.005940
			CHANNELS 3 Zrotation Yrotation Xrotation
			JOINT spine_3
			{
				OFFSET -0.011330 0.052235 0.028447
				CHANNELS 3 Zrotation Yrotation Xrotation
				JOINT neck
				{
					OFFSET -0.012164 0.165167 -0.031615
					CHANNELS 3 Zrotation Yrotation Xrotation
					JOINT head
					{
						OFFSET 0.024783 0.160452 0.020737
						CHANNELS 3 Zrotation Yrotation Xrotation
						End Site
						{
							OFFSET 0.000000 0.000000 0.000000
						}
					}
				}
				JOINT left_collar
				{
					OFFSET 0.046364 0.084944 -0.007220
					CHANNELS 3 Zrotation Yrotation Xrotation
					JOINT left_shoulder
					{
						OFFSET 0.119239 0.057728 -0.015461
						CHANNELS 3 Zrotation Yrotation Xrotation
						JOINT left_elbow
						{
							OFFSET 0.254123 -0.072151 -0.042459
							CHANNELS 3 Zrotation Yrotation Xrotation
							JOINT left_wrist
							{
								OFFSET 0.251987 0.023221 -0.002472
								CHANNELS 3 Zrotation Yrotation Xrotation
								JOINT left_index_1
								{
									OFFSET 0.101902 -0.008688 0.019351
									CHANNELS 3 Zrotation Yrotation Xrotation
									JOINT left_index_2
									{
										OFFSET 0.030149 -0.011154 0.001151
										CHANNELS 3 Zrotation Yrotation Xrotation
										JOINT left_index_3
										{
											OFFSET 0.006504 -0.021577 -0.002433
											CHANNELS 3 Zrotation Yrotation Xrotation
											End Site
											{
												OFFSET 0.000000 0.000000 0.000000
											}
										}
									}
								}
								JOINT left_middle_1
								{
									OFFSET 0.109398 -0.006328 -0.003981
									CHANNELS 3 Zrotation Yrotation Xrotation
									JOINT left_middle_2
									{
										OFFSET 0.026472 -0.015218 -0.004641
										CHANNELS 3 Zrotation Yrotation Xrotation
										JOINT left_middle_3
										{
											OFFSET 0.005022 -0.023347 -0.001911
											CHANNELS 3 Zrotation Yrotation Xrotation
											End Site
											{
												OFFSET 0.000000 0.000000 0.000000
											}
										}
									}
								}
								JOINT left_pinky_1
								{
									OFFSET 0.084047 -0.014539 -0.043750
									CHANNELS 3 Zrotation Yrotation Xrotation
									JOINT left_pinky_2
									{
										OFFSET 0.012124 -0.014448 -0.005375
										CHANNELS 3 Zrotation Yrotation Xrotation
										JOINT left_pinky_3
										{
											OFFSET 0.003798 -0.018853 0.000167
											CHANNELS 3 Zrotation Yrotation Xrotation
											End Site
											{
												OFFSET 0.000000 0.000000 0.000000
											}
										}
									}
								}
								JOINT left_ring_1
								{
									OFFSET 0.097444 -0.009268 -0.027345
									CHANNELS 3 Zrotation Yrotation Xrotation
									JOINT left_ring_2
									{
										OFFSET 0.023561 -0.016057 -0.001895
										CHANNELS 3 Zrotation Yrotation Xrotation
										JOINT left_ring_3
										{
											OFFSET 0.004257 -0.023548 0.000814
											CHANNELS 3 Zrotation Yrotation Xrotation
											End Site
											{
												OFFSET 0.000000 0.000000 0.000000
											}
										}
									}
								}
								JOINT left_thumb_1
								{
									OFFSET 0.040636 -0.017977 0.025611
									CHANNELS 3 Zrotation Yrotation Xrotation
									JOINT left_thumb_2
									{
										OFFSET 0.021637 -0.017639 0.011623
										CHANNELS 3 Zrotation Yrotation Xrotation
										JOINT left_thumb_3
										{
											OFFSET 0.024002 -0.008356 0.006548
											CHANNELS 3 Zrotation Yrotation Xrotation
											End Site
											{
												OFFSET 0.000000 0.000000 0.000000
											}
										}
									}
								}
							}
						}
					}
				}
				JOINT right_collar
				{
					OFFSET -0.047695 0.084339 -0.013400
					CHANNELS 3 Zrotation Yrotation Xrotation
					JOINT right_shoulder
					{
						OFFSET -0.102578 0.053524 -0.012669
						CHANNELS 3 Zrotation Yrotation Xrotation
						JOINT right_elbow
						{
							OFFSET -0.271150 -0.036492 -0.026467
							CHANNELS 3 Zrotation Yrotation Xrotation
							JOINT right_wrist
							{
								OFFSET -0.249267 -0.004533 -0.015325
								CHANNELS 3 Zrotation Yrotation Xrotation
								JOINT right_index_1
								{
									OFFSET -0.099881 -0.011783 0.019600
									CHANNELS 3 Zrotation Yrotation Xrotation
									JOINT right_index_2
									{
										OFFSET -0.030148 -0.011154 0.001151
										CHANNELS 3 Zrotation Yrotation Xrotation
										JOINT right_index_3
										{
											OFFSET -0.006505 -0.021577 -0.002432
											CHANNELS 3 Zrotation Yrotation Xrotation
											End Site
											{
												OFFSET 0.000000 0.000000 0.000000
											}
										}
									}
								}
								JOINT right_middle_1
								{
									OFFSET -0.107376 -0.009422 -0.003734
									CHANNELS 3 Zrotation Yrotation Xrotation
									JOINT right_middle_2
									{
										OFFSET -0.026472 -0.015218 -0.004641
										CHANNELS 3 Zrotation Yrotation Xrotation
										JOINT right_middle_3
										{
											OFFSET -0.005022 -0.023347 -0.001911
											CHANNELS 3 Zrotation Yrotation Xrotation
											End Site
											{
												OFFSET 0.000000 0.000000 0.000000
											}
										}
									}
								}
								JOINT right_pinky_1
								{
									OFFSET -0.082027 -0.017634 -0.043503
									CHANNELS 3 Zrotation Yrotation Xrotation
									JOINT right_pinky_2
									{
										OFFSET -0.012123 -0.014448 -0.005374
										CHANNELS 3 Zrotation Yrotation Xrotation
										JOINT right_pinky_3
										{
											OFFSET -0.003798 -0.018852 0.000167
											CHANNELS 3 Zrotation Yrotation Xrotation
											End Site
											{
												OFFSET 0.000000 0.000000 0.000000
											}
										}
									}
								}
								JOINT right_ring_1
								{
									OFFSET -0.095423 -0.012362 -0.027099
									CHANNELS 3 Zrotation Yrotation Xrotation
									JOINT right_ring_2
									{
										OFFSET -0.023561 -0.016057 -0.001895
										CHANNELS 3 Zrotation Yrotation Xrotation
										JOINT right_ring_3
										{
											OFFSET -0.004257 -0.023548 0.000816
											CHANNELS 3 Zrotation Yrotation Xrotation
											End Site
											{
												OFFSET 0.000000 0.000000 0.000000
											}
										}
									}
								}
								JOINT right_thumb_1
								{
									OFFSET -0.038613 -0.021074 0.025861
									CHANNELS 3 Zrotation Yrotation Xrotation
									JOINT right_thumb_2
									{
										OFFSET -0.021636 -0.017639 0.011623
										CHANNELS 3 Zrotation Yrotation Xrotation
										JOINT right_thumb_3
										{
											OFFSET -0.024004 -0.008353 0.006547
											CHANNELS 3 Zrotation Yrotation Xrotation
											End Site
											{
												OFFSET 0.000000 0.000000 0.000000
											}
										}
									}
								}
							}
						}
					}
				}
			}
		}
	}
}
MOTION
Frames: 4
Frame Time: 0.050000
0.896088 0.933687 0.465187 -0.246814 -16.783748 -4.586643 -46.302098 3.969358 -1.555640 43.248894 -1.117846 -1.277021 -31.310091 33.154605 98.106005 0.000000 0.000000 0.000000 37.340583 3.530081 -6.732707 -34.697805 -0.321972 -10.627449 29.169667 -16.601060 118.734920 0.000000 0.000000 0.000000 1.140391 -1.394839 29.908003 -15.576751 -6.139394 -46.967360 6.528202 -18.349426 28.974164 7.347950 1.119055 -11.191706 0.000000 0.000000 0.000000 117.908971 -20.099486 25.037798 136.910904 -24.856984 27.072210 -123.808161 39.552887 -98.661808 22.338771 -13.326935 44.268089 -13.916081 32.828283 3.621276 68.694601 -3.931938 6.979228 0.000000 0.000000 0.000000 16.406609 -8.803396 -4.587404 64.155683 -4.278347 44.607275 0.000000 0.000000 0.000000 87.104728 0.141666 -65.450195 39.886550 -2.017215 31.163579 0.000000 0.000000 0.000000 50.337121 -14.418778 -31.877685 66.756432 -1.451176 45.370715 0.000000 0.000000 0.000000 53.492477 57.355360 68.619220 -16.416796 -21.502027 -0.291078 0.000000 0.000000 0.000000 -128.806475 -36.561505 11.271089 -106.215477 -49.707906 75.731665 159.557494 -17.279427 -81.230379 -7.670310 -0.925730 64.471838 18.171403 -6.602205 -2.351715 -43.014719 3.465406 13.503009 0.000000 0.000000 0.000000 -7.781241 6.135259 -2.974134 -25.044796 -1.879587 31.319647 0.000000 0.000000 0.000000 -71.168404 -2.738993 -18.286396 -8.749129 -15.333133 38.335256 0.000000 0.000000 0.000000 -29.925244 0.896708 -8.536405 -17.435468 -9.653382 30.413397 0.000000 0.000000 0.000000 4.878000 -37.519682 21.405153 8.936668 20.521519 -3.221287 0.000000 0.000000 0.000000 
0.896088 0.933687 0.465187 -0.144855 -17.104384 -4.818760 -46.342065 3.950048 -1.708558 43.117948 -1.355389 -0.762481 -31.993867 32.857460 97.504367 0.000000 0.000000 0.000000 37.291547 3.396673 -6.406411 -34.647986 -0.326326 -10.748990 29.092431 -16.453685 118.907772 0.000000 0.000000 0.000000 0.946441 -1.317204 30.190922 -15.763740 -5.995135 -46.396765 6.114646 -18.929757 28.516363 8.089960 1.039604 -10.866384 0.000000 0.000000 0.000000 117.838276 -20.518273 25.638854 137.083464 -25.048571 26.549941 -123.673942 40.089950 -99.431375 23.202920 -12.384872 40.898253 -12.859761 31.135230 4.317726 70.249615 -4.800021 10.605168 0.000000 0.000000 0.000000 17.921586 -8.453476 -4.311369 64.881679 -5.887270 41.971537 0.000000 0.000000 0.000000 85.721555 -1.803879 -68.145905 39.658418 -2.107043 29.687526 0.000000 0.000000 0.000000 49.666001 -16.729971 -33.766985 67.700840 -2.088852 40.358400 0.000000 0.000000 0.000000 53.856665 55.776751 68.386398 -15.085100 -21.777972 -0.913993 0.000000 0.000000 0.000000 -127.600759 -38.503574 11.566683 -105.202820 -52.110505 76.615951 158.565772 -16.252182 -75.978776 -7.047922 -1.224527 64.517638 17.982221 -6.911368 -2.172938 -41.362115 3.381431 13.428923 0.000000 0.000000 0.000000 -8.027957 6.757563 -3.459955 -23.063839 -2.054530 30.551960 0.000000 0.000000 0.000000 -69.306372 -2.217284 -17.071380 -8.030175 -17.115588 39.407730 0.000000 0.000000 0.000000 -29.058235 1.257059 -8.398730 -16.099787 -12.989685 32.743404 0.000000 0.000000 0.000000 5.925241 -35.734109 20.378650 7.402743 21.376069 -4.283673 0.000000 0.000000 0.000000 
0.896088 0.933687 0.463867 -0.108788 -17.002488 -4.820333 -46.362360 3.909407 -1.743937 43.155414 -1.311574 -0.868171 -31.716366 33.076587 97.869617 0.000000 0.000000 0.000000 37.263696 3.407123 -6.461163 -34.644022 -0.377403 -10.883568 28.901958 -16.550059 118.966575 0.000000 0.000000 0.000000 0.914783 -1.316917 30.174935 -15.754508 -6.006799 -46.403123 7.393712 -16.957355 28.166816 8.280686 0.993310 -10.657607 0.000000 0.000000 0.000000 118.927143 -18.314580 25.264209 134.102752 -23.706135 29.684920 -123.643438 38.827415 -95.918788 23.147643 -11.070328 47.463679 -14.631821 27.479857 2.934187 64.030231 -4.659992 13.484207 0.000000 0.000000 0.000000 17.168513 -7.119221 -3.378442 55.817662 -2.503020 43.224977 0.000000 0.000000 0.000000 87.684372 0.866220 -60.652770 37.857651 -1.226438 33.585464 0.000000 0.000000 0.000000 49.653330 -13.300346 -30.361511 60.633932 0.421466 47.135548 0.000000 0.000000 0.000000 43.352770 57.559594 61.072766 -14.263201 -22.200288 -1.490766 0.000000 0.000000 0.000000 -129.109043 -36.375180 12.415543 -105.452074 -49.759175 75.393516 159.605728 -18.007591 -83.682021 -5.614652 -0.215639 66.165384 16.696967 -8.970596 -1.172447 -42.546321 3.480437 12.789240 0.000000 0.000000 0.000000 -8.438586 3.805568 -1.447544 -22.553326 -1.782461 28.414562 0.000000 0.000000 0.000000 -74.033337 -5.197952 -20.453543 -12.133017 -17.233220 46.097458 0.000000 0.000000 0.000000 -30.756611 1.106115 -9.919912 -22.226885 -15.299493 40.304721 0.000000 0.000000 0.000000 6.234560 -37.986150 20.483210 8.113079 20.084949 -3.465371 0.000000 0.000000 0.000000 
0.892319 0.933687 0.465187 -0.176669 -22.032366 -4.749746 -45.818765 3.579427 -3.923093 42.877879 -1.329228 0.269988 -34.134439 34.662103 96.342171 0.000000 0.000000 0.000000 38.312953 3.121104 -4.340038 -33.738602 -0.434972 -12.698387 25.184346 -14.461254 121.077482 0.000000 0.000000 0.000000 -0.769500 -0.673259 29.188316 -14.428909 -5.794368 -46.368651 7.252096 -19.068686 28.985277 7.970002 0.952559 -10.613770 0.000000 0.000000 0.000000 115.904557 -21.512792 28.446325 135.518637 -26.143442 28.527061 -123.189458 37.367881 -96.213639 23.619313 -11.001152 45.781966 -13.714923 30.710298 3.612384 66.969622 -4.087642 6.772039 0.000000 0.000000 0.000000 17.274239 -8.429112 -4.276656 58.889934 -3.808890 42.778759 0.000000 0.000000 0.000000 87.200082 -0.528412 -62.656243 38.038696 -1.474865 32.593371 0.000000 0.000000 0.000000 49.696469 -12.577783 -28.048584 58.025902 -0.223985 39.956273 0.000000 0.000000 0.000000 46.307108 56.548082 63.099626 -15.030741 -19.967818 -0.409820 0.000000 0.000000 0.000000 -126.465098 -39.712967 7.769599 -108.329523 -49.991560 76.074209 161.637970 -20.198114 -90.786251 -7.211607 -0.009560 65.580178 18.493259 -8.896170 -1.970716 -45.128538 3.350996 13.907138 0.000000 0.000000 0.000000 -8.783942 6.064663 -3.039220 -24.168101 -2.847502 31.339244 0.000000 0.000000 0.000000 -74.871855 -4.282549 -25.959053 -16.702365 -14.863594 47.504172 0.000000 0.000000 0.000000 -32.409069 -0.928938 -9.682811 -21.312760 -11.874898 35.017266 0.000000 0.000000 0.000000 1.792259 -41.025088 23.517736 10.055567 21.537854 -3.067513 0.000000 0.000000 0.000000 
